Coordinates
version=1
nRows=6
nColumns=63
inDegrees=yes

Units are S.I. units (second, meters, Newtons, ...)
If the header above contains a line with 'inDegrees', this indicates whether rotational values are in degrees (yes) or radians (no).

endheader
time	pelvis_tilt	pelvis_list	pelvis_rotation	pelvis_tx	pelvis_ty	pelvis_tz	hip_flexion_r	hip_adduction_r	hip_rotation_r	knee_angle_r	knee_angle_r_beta	ankle_angle_r	subtalar_angle_r	mtp_angle_r	hip_flexion_l	hip_adduction_l	hip_rotation_l	knee_angle_l	knee_angle_l_beta	ankle_angle_l	subtalar_angle_l	mtp_angle_l	L5_S1_Flex_Ext	L5_S1_Lat_Bending	L5_S1_axial_rotation	L4_L5_Flex_Ext	L4_L5_Lat_Bending	L4_L5_axial_rotation	L3_L4_Flex_Ext	L3_L4_Lat_Bending	L3_L4_axial_rotation	L2_L3_Flex_Ext	L2_L3_Lat_Bending	L2_L3_axial_rotation	L1_L2_Flex_Ext	L1_L2_Lat_Bending	L1_L2_axial_rotation	L1_T12_Flex_Ext	L1_T12_Lat_Bending	L1_T12_axial_rotation	Abs_r3	Abs_r2	Abs_r1	Abs_t1	Abs_t2	neck_flexion	neck_bending	neck_rotation	arm_flex_r	arm_add_r	arm_rot_r	elbow_flex_r	pro_sup_r	wrist_flex_r	wrist_dev_r	arm_flex_l	arm_add_l	arm_rot_l	elbow_flex_l	pro_sup_l	wrist_flex_l	wrist_dev_l
      2.26666667	      4.74788630	     -0.25772816	     79.67312754	      0.33539421	      1.03541866	      0.41447057	     -3.06819705	     -1.88069551	     15.63386627	      4.57105092	      0.07977989	     24.63433155	     -2.48542552	      0.00000000	     -5.90740565	      0.90016495	     -3.41676589	      1.69221466	      0.02953472	     24.95424993	    -12.10108595	      0.00000000	     -0.02029941	      0.16222028	      1.90479393	     -0.03769803	      0.21575298	      2.02384355	     -0.03334990	      0.39442240	      2.02384355	     -0.02320020	      0.39442240	      1.66669469	     -0.01885003	      0.33079960	      1.54764507	     -0.01159908	      0.25127922	      1.42859544	     -0.14499665	      1.83506830	     10.59389238	      0.00000000	      0.00000000	     25.24070342	      1.77705816	      2.56718808	      8.52750419	    -18.58420379	     -6.52307564	    144.64269385	     68.71553298	     61.93853537	     16.71632919	     -3.00232163	    -24.07905133	     -0.58177842	    147.02266050	     13.73953275	     56.90209360	     23.64003443
      2.28333333	      4.78486240	     -0.20067771	     79.71258190	      0.33554472	      1.03602605	      0.41483435	     -3.12769176	     -1.80112975	     16.34864307	      4.52619342	      0.07899698	     24.34899330	     -3.58286495	      0.00000000	     -5.95398510	      0.83790773	     -3.64896958	      1.74815525	      0.03051106	     24.99938690	    -11.62694189	      0.00000000	     -0.02937502	      0.15452560	      1.92049014	     -0.05455236	      0.20551905	      2.04052077	     -0.04826023	      0.37571355	      2.04052077	     -0.03357271	      0.37571355	      1.68042887	     -0.02727765	      0.31510861	      1.56039824	     -0.01678489	      0.23936016	      1.44036761	     -0.20982285	      1.74802452	     10.68119001	      0.00000000	      0.00000000	     24.89440068	      1.67180337	      2.00823704	      9.09123835	    -19.13510190	     -3.66393584	    143.17935795	     59.28030933	     61.61946340	     23.27051837	     -3.84821435	    -24.43436085	     -1.51486398	    146.11017411	     16.07317188	     50.66348043	     24.43151211
      2.30000000	      4.80323722	     -0.15902067	     79.83007175	      0.33580143	      1.03648719	      0.41483558	     -3.18973925	     -1.75506406	     16.40504668	      4.50036939	      0.07854626	     24.27721281	     -3.77992823	      0.00000000	     -6.02586617	      0.79000141	     -3.60423776	      1.76354957	      0.03077975	     24.94088883	    -11.34268457	      0.00000000	     -0.02978063	      0.13586307	      1.94039532	     -0.05530560	      0.18069789	      2.06167003	     -0.04892659	      0.33033748	      2.06167003	     -0.03403628	      0.33033748	      1.69784590	     -0.02765429	      0.27705198	      1.57657120	     -0.01701665	      0.21045190	      1.45529649	     -0.21272004	      1.53691027	     10.79189665	      0.00000000	      0.00000000	     24.76130035	      1.75087885	      1.16225974	      9.36941088	    -19.70072657	     -1.07560100	    141.32260577	     56.13374173	     61.37285416	     24.10729516	     -4.32199179	    -24.78494737	     -2.08097473	    145.18053814	     20.62002225	     43.28551831	     24.07554869
      2.31666667	      4.85966822	     -0.11901734	     80.01524650	      0.33580425	      1.03685468	      0.41446372	     -3.33492725	     -1.68010809	     16.54288161	      4.35899620	      0.07607884	     24.01444601	     -4.32118726	      0.00000000	     -6.12934865	      0.71509684	     -3.30779764	      1.74749497	      0.03049954	     24.85765238	    -11.22923425	      0.00000000	     -0.02416943	      0.12031928	      1.96704937	     -0.04488505	      0.16002464	      2.08998995	     -0.03970796	      0.29254429	      2.08998995	     -0.02762324	      0.29254429	      1.72116820	     -0.02244373	      0.24535507	      1.59822761	     -0.01381041	      0.18637456	      1.47528702	     -0.17263983	      1.36107571	     10.94013846	      0.00000000	      0.00000000	     24.79236216	      2.19427447	      0.26653007	      9.53561646	    -20.27380144	      1.64377525	    139.24713749	     51.13168144	     60.00435815	     27.89027906	     -4.24917164	    -25.43656060	     -1.02525083	    143.82425434	     29.30255825	     35.60288893	     19.32543206
      2.33333333	      4.99678372	     -0.06085825	     80.35227802	      0.33561345	      1.03709216	      0.41367089	     -3.56713122	     -1.54444495	     16.49406603	      4.18698291	      0.07307664	     23.90666539	     -4.48423866	      0.00000000	     -6.26960630	      0.56070971	     -2.81033199	      1.72301292	      0.03007225	     24.67907681	    -11.38452494	      0.00000000	     -0.01236543	      0.11833847	      1.96114570	     -0.02296383	      0.15739017	      2.08371730	     -0.02031516	      0.28772816	      2.08371730	     -0.01413244	      0.28772816	      1.71600248	     -0.01148253	      0.24131581	      1.59343088	     -0.00706560	      0.18330629	      1.47085927	     -0.08832500	      1.33866844	     10.90730402	      0.00000000	      0.00000000	     24.84211528	      2.51105597	     -0.31673114	      9.45430719	    -20.90750874	      4.09948642	    136.90087035	     49.85809010	     56.86552555	     29.60757436	     -3.54016943	    -26.12567986	      1.49871876	    142.23091433	     34.09511030	     26.40893805	     16.60182206
      2.35000000	      5.15711213	      0.16399806	     80.93799923	      0.33491806	      1.03744681	      0.41275044	     -4.01319092	     -1.41328405	     16.08467114	      3.98741836	      0.06959358	     23.71766245	     -4.56856382	      0.00000000	     -6.54285470	      0.38154786	     -2.21481789	      1.72298006	      0.03007168	     24.67385651	    -11.34320238	      0.00000000	     -0.02437410	      0.13122327	      1.89535337	     -0.04526514	      0.17452695	      2.01381295	     -0.04004420	      0.31905626	      2.01381295	     -0.02785716	      0.31905626	      1.65843419	     -0.02263379	      0.26759049	      1.53997461	     -0.01392736	      0.20326484	      1.42151502	     -0.17410174	      1.48442387	     10.54138681	      0.00000000	      0.00000000	     24.72180091	      3.03322153	      0.14501343	      9.25846205	    -21.48390452	      6.33585136	    134.43899414	     51.67118492	     51.36373154	     29.96410766	     -2.08169093	    -26.46356800	      4.76542582	    139.75593392	     34.79142674	     19.28118938	     15.91330783
